<?xml version="1.0" encoding="UTF-8"?>
<!DOCTYPE svg PUBLIC "-//W3C//DTD SVG 1.1//EN" "http://www.w3.org/Graphics/SVG/1.1/DTD/svg11.dtd">
<svg xmlns="http://www.w3.org/2000/svg" version="1.1" width="400px" height="400px" style="shape-rendering:geometricPrecision; text-rendering:geometricPrecision; image-rendering:optimizeQuality; fill-rule:evenodd; clip-rule:evenodd" xmlns:xlink="http://www.w3.org/1999/xlink">
<g><path style="opacity:0.977" fill="#fefffe" d="M 180.5,19.5 C 258.63,15.141 317.797,46.141 358,112.5C 381.374,157.595 386.041,204.595 372,253.5C 346.056,326.105 294.889,367.938 218.5,379C 140.346,383.845 81.1791,353.012 41,286.5C 17.6259,241.405 12.9592,194.405 27,145.5C 53.1098,72.8834 104.276,30.8834 180.5,19.5 Z M 325.5,128.5 C 326.552,128.351 327.552,128.517 328.5,129C 325.471,132.03 322.804,135.364 320.5,139C 296.943,183.737 272.61,228.737 247.5,274C 246.852,275.44 246.519,276.94 246.5,278.5C 188.163,278.833 129.83,278.5 71.5,277.5C 79.1435,264.88 85.9768,252.547 92,240.5C 112.29,203.661 132.123,166.661 151.5,129.5C 209.669,129.832 267.669,129.499 325.5,128.5 Z"/></g>
</svg>
