<?xml version="1.0" encoding="UTF-8"?>
<!DOCTYPE svg PUBLIC "-//W3C//DTD SVG 1.1//EN" "http://www.w3.org/Graphics/SVG/1.1/DTD/svg11.dtd">
<svg xmlns="http://www.w3.org/2000/svg" version="1.1" width="1667px" height="1667px" style="shape-rendering:geometricPrecision; text-rendering:geometricPrecision; image-rendering:optimizeQuality; fill-rule:evenodd; clip-rule:evenodd" xmlns:xlink="http://www.w3.org/1999/xlink">
<g><path style="opacity:0.981" fill="#fdfffd" d="M 781.5,78.5 C 878.94,75.2631 974.274,87.7631 1067.5,116C 1186.05,154.628 1287.88,219.128 1373,309.5C 1418.02,358.226 1457.68,410.892 1492,467.5C 1589.08,655.307 1608.75,850.974 1551,1054.5C 1443.77,1356.68 1231.27,1531.52 913.5,1579C 586.326,1601.02 338.493,1472.85 170,1194.5C 73.3291,1007.79 53.3291,813.127 110,610.5C 216.306,307.228 428.472,130.728 746.5,81C 758.317,80.0988 769.984,79.2655 781.5,78.5 Z M 707.5,434.5 C 812.547,434.408 917.547,436.575 1022.5,441C 1133.18,456.011 1198.68,518.511 1219,628.5C 1228.61,761.131 1228.95,893.798 1220,1026.5C 1199.18,1147.98 1127.35,1213.82 1004.5,1224C 900.175,1226.82 795.841,1227.15 691.5,1225C 652.616,1226.49 614.616,1221.49 577.5,1210C 527.272,1192.1 489.772,1159.6 465,1112.5C 446.583,1078.17 436.917,1041.5 436,1002.5C 432.589,945.388 431.089,888.222 431.5,831C 431.744,773.825 432.578,716.658 434,659.5C 441.931,540.911 503.764,468.411 619.5,442C 630.428,439.614 641.428,437.614 652.5,436C 671.005,435.832 689.338,435.332 707.5,434.5 Z"/></g>
<g><path style="opacity:0.901" fill="#fdfffd" d="M 1024.5,566.5 C 1077.22,562.395 1098.38,586.395 1088,638.5C 1071.36,663.384 1048.53,671.551 1019.5,663C 1001.17,652.353 991.838,636.353 991.5,615C 991.294,594.41 999.961,578.744 1017.5,568C 1020.04,567.814 1022.37,567.314 1024.5,566.5 Z"/></g>
<g><path style="opacity:0.994" fill="#fdfffd" d="M 801.5,643.5 C 898.213,638.011 966.047,678.344 1005,764.5C 1010.23,782.841 1013.73,801.507 1015.5,820.5C 1015.49,832.024 1015.32,843.691 1015,855.5C 1010.77,889.592 998.105,919.925 977,946.5C 960.603,966.569 941.436,983.402 919.5,997C 825.09,1037.89 744.09,1020.06 676.5,943.5C 672.559,935.787 668.226,928.287 663.5,921C 663.833,920.667 664.167,920.333 664.5,920C 658.46,910.557 653.96,900.391 651,889.5C 633.829,831.318 641.329,776.485 673.5,725C 673.167,724.667 672.833,724.333 672.5,724C 704.855,680.47 747.855,653.637 801.5,643.5 Z"/></g>
</svg>
