<?xml version="1.0" encoding="UTF-8" standalone="no"?>
<!DOCTYPE svg PUBLIC "-//W3C//DTD SVG 1.1//EN" "http://www.w3.org/Graphics/SVG/1.1/DTD/svg11.dtd">
<svg
   width="4194"
   height="1052"
   style="shape-rendering:geometricPrecision;text-rendering:geometricPrecision;image-rendering:optimizeQuality;fill-rule:evenodd;clip-rule:evenodd"
   version="1.1"
   id="svg6"
   sodipodi:docname="logo.svg"
   xmlns:inkscape="http://www.inkscape.org/namespaces/inkscape"
   xmlns:sodipodi="http://sodipodi.sourceforge.net/DTD/sodipodi-0.dtd"
   xmlns="http://www.w3.org/2000/svg"
   xmlns:svg="http://www.w3.org/2000/svg">
  <defs
     id="defs10" />
  <sodipodi:namedview
     id="namedview8"
     pagecolor="#ffffff"
     bordercolor="#000000"
     borderopacity="0.25"
     inkscape:showpageshadow="2"
     inkscape:pageopacity="0.0"
     inkscape:pagecheckerboard="0"
     inkscape:deskcolor="#d1d1d1" />
  <path
     style="opacity:1"
     stroke="#000"
     d="M2501.5 164.5c98.32-5.435 191.66 13.398 280 56.5 61.48 30.806 112.65 73.972 153.5 129.5 66.6 97.667 77.6 201.334 33 311-29.09 62.314-71.93 113.148-128.5 152.5-81.32 55.219-171.32 85.553-270 91-113.77 6.806-219.44-18.86-317-77-51.03-32.031-93.2-73.198-126.5-123.5-56.21-92.006-64.88-188.339-26-289 29.18-65.187 73.01-118.354 131.5-159.5 81.51-55.114 171.51-85.614 270-91.5zm28 90c79.85-.735 154.85 17.765 225 55.5 49.92 27.587 89.75 65.753 119.5 114.5 43.88 83.814 39.21 164.814-14 243-38.69 50.609-87.53 88.109-146.5 112.5-118.67 47.333-237.33 47.333-356 0-57.34-23.684-105.17-59.851-143.5-108.5-63.33-91-63.33-182 0-273 38.33-48.649 86.16-84.816 143.5-108.5 55.22-22.643 112.55-34.477 172-35.5zM1118.5 166.5c288.33-.167 576.67 0 865 .5a5562.181 5562.181 0 0 1 34.5 62.5c1.88 2.414 2.55 5.081 2 8A65452.43 65452.43 0 0 1 1793.5 591c47.33.5 94.67.667 142 .5v91c-67-.333-134 0-201 1-46.67 73-93.33 146-140 219a774.454 774.454 0 0 1-78.5 0c-47.83-73.167-95.67-146.333-143.5-219.5-69.67-.5-139.33-.667-209-.5v-91c49.67.167 99.33 0 149-.5-76.83-117.5-153.67-235-230.5-352.5-.71-2.471-.37-4.805 1-7 11.85-21.694 23.68-43.36 35.5-65zm85 91c231.83-1.166 463.83-1.333 696-.5a86855.793 86855.793 0 0 0-214 334c-88 .833-176 .667-264-.5a933246.92 933246.92 0 0 1-218-333zm278 426c48.16-1.165 96.5-1.332 145-.5a19351.112 19351.112 0 0 1-71.5 111.5 13809.79 13809.79 0 0 0-73.5-111zM487.5 168.5h90c-.167 90.334 0 180.667.5 271A205334.066 205334.066 0 0 1 914.5 170c1.867-.711 3.367-.211 4.5 1.5a2616.309 2616.309 0 0 1 53.5 68.5 78423.4 78423.4 0 0 1-367 294c125.02 100.358 250.02 200.691 375 301a2616.309 2616.309 0 0 1-53.5 68.5c-1.133 1.711-2.633 2.211-4.5 1.5A71691.145 71691.145 0 0 0 578 629.5c-.5 91.666-.667 183.333-.5 275h-90c.333-91.669 0-183.336-1-275a135660.565 135660.565 0 0 0-344 275.5c-1.867.711-3.367.211-4.5-1.5A2616.309 2616.309 0 0 1 84.5 835c124.98-100.309 249.98-200.642 375-301a78423.4 78423.4 0 0 1-367-294 2616.309 2616.309 0 0 1 53.5-68.5c1.133-1.711 2.633-2.211 4.5-1.5A205334.066 205334.066 0 0 1 487 439.5c.5-90.333.667-180.666.5-271zM3166.5 170.5c2.15-.128 4.15.372 6 1.5a177865.716 177865.716 0 0 0 396 309.5 177865.716 177865.716 0 0 0 396-309.5c1.86-1.301 3.86-1.635 6-1a3320.225 3320.225 0 0 1 69 34c1.17 222.764 1.33 445.597.5 668.5-22.97 11.9-46.13 23.4-69.5 34.5-2.14.635-4.14.301-6-1a147234.666 147234.666 0 0 0-396-309.5 147234.666 147234.666 0 0 0-396 309.5c-1.86 1.301-3.86 1.635-6 1a3320.225 3320.225 0 0 1-69-34 74478.606 74478.606 0 0 1-.5-668.5 6809.22 6809.22 0 0 1 69.5-35zm20 129c102.3 79.825 204.64 159.658 307 239.5-102.17 80.167-204.33 160.333-306.5 240.5-.5-160-.67-320-.5-480zm763 0c1.17 159.833 1.33 319.833.5 480-102.17-80.167-204.33-160.333-306.5-240.5a76606.256 76606.256 0 0 0 306-239.5z"
     id="path2" />
  <path
     style="opacity:1"
     stroke="#000"
     d="M2525.5 493.5c24.24-3.424 44.41 3.91 60.5 22 14.28 24.389 10.78 45.889-10.5 64.5-19.37 12.181-40.03 14.848-62 8-27.92-11.674-38.42-32.174-31.5-61.5 9-18.399 23.5-29.399 43.5-33z"
     id="path4" />
</svg>
