<?xml version="1.0" encoding="UTF-8"?>
<!DOCTYPE svg PUBLIC "-//W3C//DTD SVG 1.1//EN" "http://www.w3.org/Graphics/SVG/1.1/DTD/svg11.dtd">
<svg xmlns="http://www.w3.org/2000/svg" version="1.1" width="400px" height="400px" style="shape-rendering:geometricPrecision; text-rendering:geometricPrecision; image-rendering:optimizeQuality; fill-rule:evenodd; clip-rule:evenodd" xmlns:xlink="http://www.w3.org/1999/xlink">
<g><path style="opacity:0.977" fill="#fefffe" d="M 180.5,19.5 C 258.63,15.141 317.797,46.141 358,112.5C 381.374,157.595 386.041,204.595 372,253.5C 346.056,326.105 294.889,367.938 218.5,379C 140.346,383.845 81.1791,353.012 41,286.5C 17.6259,241.405 12.9592,194.405 27,145.5C 53.1098,72.8834 104.276,30.8834 180.5,19.5 Z M 85.5,125.5 C 162.332,124.334 239.332,124.168 316.5,125C 278,156.833 239.5,188.667 201,220.5C 162.607,188.598 124.107,156.931 85.5,125.5 Z M 76.5,132.5 C 100.098,150.931 122.931,170.264 145,190.5C 145.867,194.956 145.534,199.289 144,203.5C 121.667,225.833 99.3333,248.167 77,270.5C 76.6076,224.589 76.4409,178.589 76.5,132.5 Z M 311.5,256.5 C 293.616,239.117 275.782,221.45 258,203.5C 254.102,195.841 255.602,189.341 262.5,184C 283.202,167.644 303.535,150.811 323.5,133.5C 324.086,133.709 324.586,134.043 325,134.5C 325.667,179.833 325.667,225.167 325,270.5C 320.297,265.965 315.797,261.298 311.5,256.5 Z M 177.5,216.5 C 184.25,221.076 190.583,226.242 196.5,232C 198.695,233.373 201.029,233.706 203.5,233C 215.776,223.282 227.943,213.448 240,203.5C 254.988,218.154 269.988,232.821 285,247.5C 285.464,248.094 285.631,248.761 285.5,249.5C 296.248,258.728 306.915,268.895 317.5,280C 239.833,280.667 162.167,280.667 84.5,280C 110.322,254.368 136.155,228.868 162,203.5C 167.65,207.322 172.817,211.655 177.5,216.5 Z"/></g>
<g><path style="opacity:0.018" fill="#fefffe" d="M 177.5,125.5 C 178.376,125.369 179.043,125.702 179.5,126.5C 177.192,127.873 176.525,127.54 177.5,125.5 Z"/></g>
<g><path style="opacity:0.034" fill="#fefffe" d="M 185.5,125.5 C 186.376,125.369 187.043,125.702 187.5,126.5C 185.192,127.873 184.525,127.54 185.5,125.5 Z"/></g>
<g><path style="opacity:0.021" fill="#fefffe" d="M 173.5,126.5 C 174.289,126.783 174.956,127.283 175.5,128C 174.184,128.528 173.517,128.028 173.5,126.5 Z"/></g>
<g><path style="opacity:0.043" fill="#fefffe" d="M 305.5,232.5 C 303.335,231.065 301.835,231.731 301,234.5C 300.641,230.52 302.308,229.187 306,230.5C 306.692,231.437 306.525,232.103 305.5,232.5 Z"/></g>
<g><path style="opacity:0.039" fill="#fefffe" d="M 305.5,232.5 C 305.217,233.289 304.717,233.956 304,234.5C 303.472,233.184 303.972,232.517 305.5,232.5 Z"/></g>
<g><path style="opacity:0.033" fill="#fefffe" d="M 307.5,232.5 C 308.657,235.857 307.324,237.357 303.5,237C 305.751,236.252 307.084,234.752 307.5,232.5 Z"/></g>
<g><path style="opacity:0.021" fill="#fefffe" d="M 285.5,249.5 C 285.489,252.001 284.822,252.168 283.5,250C 284.094,249.536 284.761,249.369 285.5,249.5 Z"/></g>
<g><path style="opacity:0.028" fill="#fefffe" d="M 280.5,251.5 C 283.166,251.066 284.333,252.066 284,254.5C 282.213,253.657 280.38,253.49 278.5,254C 279.381,253.292 280.047,252.458 280.5,251.5 Z"/></g>
<g><path style="opacity:0.025" fill="#fefffe" d="M 280.5,261.5 C 280.489,263.017 279.823,264.184 278.5,265C 279.451,265.718 279.617,266.551 279,267.5C 276.101,264.91 276.601,262.91 280.5,261.5 Z"/></g>
</svg>
