<?xml version="1.0" encoding="UTF-8"?>
<!DOCTYPE svg PUBLIC "-//W3C//DTD SVG 1.1//EN" "http://www.w3.org/Graphics/SVG/1.1/DTD/svg11.dtd">
<svg xmlns="http://www.w3.org/2000/svg" version="1.1" width="400px" height="400px" style="shape-rendering:geometricPrecision; text-rendering:geometricPrecision; image-rendering:optimizeQuality; fill-rule:evenodd; clip-rule:evenodd" xmlns:xlink="http://www.w3.org/1999/xlink">
<g><path style="opacity:0.984" fill="#fefffe" d="M 180.5,19.5 C 258.63,15.141 317.797,46.141 358,112.5C 381.374,157.595 386.041,204.595 372,253.5C 346.056,326.105 294.889,367.938 218.5,379C 140.346,383.845 81.1791,353.012 41,286.5C 17.6259,241.405 12.9592,194.405 27,145.5C 53.1098,72.8834 104.276,30.8834 180.5,19.5 Z M 143.5,124.5 C 182.168,124.333 220.835,124.5 259.5,125C 268.23,125.488 276.896,126.488 285.5,128C 294.932,129.769 301.765,134.936 306,143.5C 308.744,152.628 310.41,161.962 311,171.5C 311.883,193.859 311.549,216.192 310,238.5C 309.572,248.118 306.572,256.785 301,264.5C 297.215,267.642 293.048,270.142 288.5,272C 274.609,274.414 260.609,275.748 246.5,276C 210.819,276.856 175.153,276.523 139.5,275C 110.067,277.223 94.9001,263.723 94,234.5C 92.6576,217.184 92.3243,199.851 93,182.5C 93.1018,170.687 94.4351,159.02 97,147.5C 100.007,138.647 105.84,132.48 114.5,129C 124.204,126.872 133.871,125.372 143.5,124.5 Z"/></g>
<g><path style="opacity:0.918" fill="#fefffe" d="M 179.5,166.5 C 193.768,174.304 208.101,182.137 222.5,190C 227.887,193.02 232.887,196.52 237.5,200.5C 218.701,212.07 199.701,223.404 180.5,234.5C 179.5,211.843 179.167,189.176 179.5,166.5 Z"/></g>
</svg>
